<svg xmlns="http://www.w3.org/2000/svg" xmlns:svg="http://www.w3.org/2000/svg" id="svg25" width="538" height="538" version="1.1" viewBox="0 0 538 538"><metadata id="metadata29"/><defs id="defs7"><linearGradient id="a" x1="511.97" x2="511.97" y1="920" y2="100" gradientUnits="userSpaceOnUse"><stop id="stop2" offset="0" stop-color="#212121"/><stop id="stop4" offset="1" stop-color="#282828"/></linearGradient></defs><title id="title9">vector</title><g style="isolation:isolate" id="g23" transform="translate(-243,-321.8)"><g id="g838" transform="translate(0,80.805216)"><path id="path19" fill="#fff" d="m 243,680.12 v -64.86 c 0,-4.25 2.13,-8.51 4.25,-11.7 L 412,424.94 c 6.38,-7.44 18.07,-7.44 25.51,-1.06 l 120.15,118 a 19.41,19.41 0 0 0 25.52,0 L 630,495.11 c 7.44,-7.44 18.08,-6.38 25.52,0 l 120.13,125.47 a 17.61,17.61 0 0 1 5.35,12.76 v 46.78 c 0,9.57 -8.5,18.07 -18.07,18.07 H 261.05 c -10.64,0 -18.05,-7.44 -18.05,-18.07 z" style="fill:#bebebe;fill-opacity:1"/><circle id="circle21" cx="661.89" cy="369.65" r="47.85" fill="#fff" style="fill:#bebebe;fill-opacity:1"/></g></g></svg>